<?xml version="1.0" encoding="utf-8"?>
<!-- Generator: Adobe Illustrator 18.1.1, SVG Export Plug-In . SVG Version: 6.00 Build 0)  -->
<svg version="1.1" id="Layer_1" xmlns="http://www.w3.org/2000/svg" xmlns:xlink="http://www.w3.org/1999/xlink" x="0px" y="0px"
	 viewBox="-49 141 512 512" enable-background="new -49 141 512 512" xml:space="preserve">
<g id="icomoon-ignore">
</g>
<path fill="#FFFFFF" d="M458.4,604.2c6.1,6.1,6.1,16,0,22.1l-22.1,22.1c-6.1,6.1-16,6.1-22.1,0L259.6,493.8
	c-1.7-1.7-2.8-3.7-3.6-5.8c-31.7,23.2-70.7,37-113,37C37,525-49,439-49,333s86-192,192-192s192,86,192,192c0,42.3-13.8,81.3-37,113
	c2.1,0.8,4.1,1.9,5.8,3.6L458.4,604.2z M143,205c-70.7,0-128,57.3-128,128s57.3,128,128,128s128-57.3,128-128S213.7,205,143,205z"/>
</svg>
